<svg id="alianza" xmlns="http://www.w3.org/2000/svg" width="114.644" height="114.644" viewBox="0 0 114.644 114.644">
  <g id="logo-alianza-travel" transform="translate(7 23.517)">
    <g id="Grupo_192" data-name="Grupo 192">
      <g id="Grupo_191" data-name="Grupo 191">
        <path id="Trazado_187" data-name="Trazado 187" d="M49.183,9.761a18.144,18.144,0,0,0,5.8,1.4V2.211l-.135.132a23.193,23.193,0,0,0-5.664,7.418ZM43.877,6.587a18.255,18.255,0,0,1,7.8-4.031,26.933,26.933,0,0,0-4.367,6.322,21.382,21.382,0,0,1-3.436-2.291ZM69.612,8.011h0a26.739,26.739,0,0,1-3.848,2.635A23.214,23.214,0,0,1,67.3,16.711c-.707-.053-1.423-.1-2.13-.141A21.536,21.536,0,0,0,63.9,11.584a19.157,19.157,0,0,1-6.846,1.662v3.042H54.982V13.237a20.3,20.3,0,0,1-6.613-1.6,21.311,21.311,0,0,0-1.226,4.916c-.716.044-1.432.088-2.138.141a23.23,23.23,0,0,1,1.476-5.95,24.089,24.089,0,0,1-4.071-2.714,17.831,17.831,0,0,0-4.474,9.364l-.752.088-1.369.071A19.912,19.912,0,0,1,41.621,5.889a20.546,20.546,0,0,1,28.8,0,19.913,19.913,0,0,1,5.8,11.653l-1.351-.062-.761-.1a17.882,17.882,0,0,0-4.492-9.372Zm-8.9-5.367a27.372,27.372,0,0,1,4.215,6.118,24.5,24.5,0,0,0,3.212-2.2,18.338,18.338,0,0,0-7.428-3.916Zm-3.651-.575h0v9.1a17.2,17.2,0,0,0,6.013-1.476,23.615,23.615,0,0,0-5.6-7.356,1.2,1.2,0,0,1-.224-.247Z" transform="translate(-4.575)" fill="#1a3988" fill-rule="evenodd"/>
        <path id="Trazado_188" data-name="Trazado 188" d="M21.82,27.218a116.007,116.007,0,0,1,61.968,0l-.107.5A151.485,151.485,0,0,0,53,24.575a157.143,157.143,0,0,0-31.078,3.148Z" transform="translate(-2.787 -2.938)" fill="#ff290a"/>
        <g id="Grupo_190" data-name="Grupo 190" transform="translate(0 27.772)">
          <path id="Trazado_189" data-name="Trazado 189" d="M13.208,44.9a8.534,8.534,0,0,1-1.289,5.066A3.835,3.835,0,0,1,8.528,51.68a6.166,6.166,0,0,1-1.907-.229,3.385,3.385,0,0,1-1.494-.929,4.324,4.324,0,0,1-.949-1.777,9.716,9.716,0,0,1-.331-2.759V44.827a9.7,9.7,0,0,1,.331-2.758,4.32,4.32,0,0,1,.949-1.777,3.287,3.287,0,0,1,1.494-.92,5.693,5.693,0,0,1,1.907-.23,5.537,5.537,0,0,1,1.906.238,3.635,3.635,0,0,1,1.486.937,4.413,4.413,0,0,1,.949,1.769,9.511,9.511,0,0,1,.34,2.741V44.9Zm3.839,8.62h0v-8.1A12.4,12.4,0,0,0,16.484,42a6.464,6.464,0,0,0-4.2-4.227A11.915,11.915,0,0,0,8.358,37.2a10.8,10.8,0,0,0-3.74.575,6.529,6.529,0,0,0-2.542,1.645A6.824,6.824,0,0,0,.573,42,12.055,12.055,0,0,0,0,45.42,12.126,12.126,0,0,0,.573,48.85a6.833,6.833,0,0,0,1.5,2.582A6.416,6.416,0,0,0,4.617,53.06a10.176,10.176,0,0,0,2.917.538h1.36a6.462,6.462,0,0,0,.85-.133,3.6,3.6,0,0,0,1.217-.522,5.739,5.739,0,0,0,1.128-1.035,11.528,11.528,0,0,0,1.119-1.679l-.036,3.289V53.6h3.875v-.079Zm79.1-8.62h0v-.071a9.54,9.54,0,0,0-.331-2.741,4.406,4.406,0,0,0-.949-1.769,3.662,3.662,0,0,0-1.494-.937,5.48,5.48,0,0,0-1.906-.238,5.766,5.766,0,0,0-1.906.23,3.258,3.258,0,0,0-1.485.92,4.321,4.321,0,0,0-.949,1.777,9.686,9.686,0,0,0-.34,2.758v1.158a9.706,9.706,0,0,0,.34,2.759,4.324,4.324,0,0,0,.949,1.777,3.363,3.363,0,0,0,1.485.929,6.234,6.234,0,0,0,1.906.229,3.85,3.85,0,0,0,3.4-1.715,8.6,8.6,0,0,0,1.28-5.066ZM100,53.519h0V53.6H96.124v-.079l.027-3.289a10.825,10.825,0,0,1-1.119,1.679,5.7,5.7,0,0,1-1.119,1.035,3.693,3.693,0,0,1-1.217.522,6.454,6.454,0,0,1-.85.133h-1.36a10.3,10.3,0,0,1-2.926-.538,6.546,6.546,0,0,1-2.542-1.628,7.066,7.066,0,0,1-1.5-2.582,12.433,12.433,0,0,1-.564-3.431A12.342,12.342,0,0,1,83.516,42a7.051,7.051,0,0,1,1.5-2.582,6.668,6.668,0,0,1,2.542-1.645,10.851,10.851,0,0,1,3.75-.575,11.912,11.912,0,0,1,3.928.575A6.923,6.923,0,0,1,97.9,39.417,6.774,6.774,0,0,1,99.436,42,12.4,12.4,0,0,1,100,45.42v8.1ZM78.209,39.9h0Q77,41.3,75.686,42.785l-2.6,2.909c-.841.946-1.655,1.848-2.416,2.688L68.652,50.6c-.582.628-1.056,1.123-1.405,1.494l-.537.557v.937l16.448-.008v-1.76H72.089q4.523-5.385,7.186-8.311c1.789-1.955,3.033-3.254,3.749-3.917V38.133H67.714v1.8l10.5-.026ZM61.942,44.933h0v8.648h3.848V45.949a13.171,13.171,0,0,0-.456-3.607A6.886,6.886,0,0,0,63.9,39.629,6.515,6.515,0,0,0,61.342,37.9a10.567,10.567,0,0,0-3.812-.609,8.087,8.087,0,0,0-6.2,2.316,8.977,8.977,0,0,0-2.157,6.339v7.632h3.848V44.933a9.782,9.782,0,0,1,.331-2.767,4.466,4.466,0,0,1,.958-1.778,3.287,3.287,0,0,1,1.486-.918,5.746,5.746,0,0,1,1.906-.231,4.782,4.782,0,0,1,1.835.248,2.907,2.907,0,0,1,1.342.937,4.348,4.348,0,0,1,.8,1.759,11.8,11.8,0,0,1,.27,2.75ZM44.008,44.9h0a8.531,8.531,0,0,1-1.289,5.066,3.825,3.825,0,0,1-3.391,1.715,6.225,6.225,0,0,1-1.906-.229,3.357,3.357,0,0,1-1.486-.929,4.317,4.317,0,0,1-.948-1.777,9.667,9.667,0,0,1-.341-2.759V44.827a9.666,9.666,0,0,1,.341-2.758,4.314,4.314,0,0,1,.948-1.777,3.26,3.26,0,0,1,1.486-.92,5.748,5.748,0,0,1,1.906-.23,5.512,5.512,0,0,1,1.906.238,3.573,3.573,0,0,1,1.485.937,4.312,4.312,0,0,1,.958,1.769,9.54,9.54,0,0,1,.331,2.741V44.9Zm3.848,8.62h0v-8.1A12.038,12.038,0,0,0,47.283,42a6.644,6.644,0,0,0-1.53-2.582A6.921,6.921,0,0,0,43.1,37.771a11.954,11.954,0,0,0-3.929-.575,10.853,10.853,0,0,0-3.75.575,6.664,6.664,0,0,0-2.542,1.645A7.062,7.062,0,0,0,31.373,42a12.4,12.4,0,0,0-.564,3.421,12.471,12.471,0,0,0,.564,3.431,7.069,7.069,0,0,0,1.5,2.582,6.542,6.542,0,0,0,2.542,1.628,10.3,10.3,0,0,0,2.926.538h1.351a6.616,6.616,0,0,0,.859-.133,3.68,3.68,0,0,0,1.217-.522,5.693,5.693,0,0,0,1.118-1.035,10.862,10.862,0,0,0,1.119-1.679l-.027,3.289V53.6h3.875v-.078ZM29.234,40.654H25.4V53.581h3.838V40.654Zm-4.626-4.545h0A2.688,2.688,0,0,0,27.3,38.788a2.272,2.272,0,0,0,.958-.222,3.029,3.029,0,0,0,.886-.583,2.95,2.95,0,0,0,.635-.857,2.27,2.27,0,0,0,.242-1.017,2.537,2.537,0,0,0-.805-1.892A2.605,2.605,0,0,0,27.3,33.43a2.556,2.556,0,0,0-1.906.787,2.588,2.588,0,0,0-.788,1.892ZM18.425,49.346h0V31.839h3.848V50.371a6.375,6.375,0,0,0,.483,2.643,6.039,6.039,0,0,0,.3.584H19.337A9.353,9.353,0,0,1,18.425,49.346Z" transform="translate(0 -31.839)" fill="#1a3988" fill-rule="evenodd"/>
        </g>
      </g>
    </g>
    <g id="Grupo_193" data-name="Grupo 193" transform="translate(19.794 53.758)">
      <path id="Trazado_190" data-name="Trazado 190" d="M24.42,66.857H25V62.294h1.727v-.583H22.693v.583H24.42Z" transform="translate(-22.693 -61.64)" fill="#a8a8a8" fill-rule="evenodd"/>
      <path id="Trazado_191" data-name="Trazado 191" d="M29.377,64.293v-2h.894c.931,0,1.2.372,1.2.991a.938.938,0,0,1-1.029,1.008H29.377Zm-.591,2.564h.591V64.867h1.136l1.128,1.989h.788l-.8-1.989a.97.97,0,0,0-.107-.176v-.01c.331-.159.537-.7.537-1.467,0-.841-.206-1.229-.519-1.4a4.006,4.006,0,0,0-1.253-.106h-1.5v5.146Z" transform="translate(-23.471 -61.64)" fill="#a8a8a8" fill-rule="evenodd"/>
      <path id="Trazado_192" data-name="Trazado 192" d="M36,62.284s.107.62.2.973l.465,1.689H35.3l.465-1.689c.1-.353.214-.973.214-.973Zm1.325,4.563h.966L36.47,61.63H35.5L33.67,66.846h.975l.429-1.326h1.817Z" transform="translate(-24.095 -61.63)" fill="#a8a8a8" fill-rule="evenodd"/>
      <path id="Trazado_193" data-name="Trazado 193" d="M41.176,66.846H42.1L43.95,61.63h-.993l-1.118,3.4c-.1.654-.188,1.158-.2,1.158h-.009c-.009,0-.1-.5-.2-.832l-1.11-3.73h-.993Z" transform="translate(-24.818 -61.63)" fill="#a8a8a8" fill-rule="evenodd"/>
      <path id="Trazado_194" data-name="Trazado 194" d="M45.755,66.786h2.89V66.2h-2.3V64.868h1.763v-.575H46.345v-2h2.184v-.583H45.755Z" transform="translate(-25.639 -61.64)" fill="#a8a8a8" fill-rule="evenodd"/>
      <path id="Trazado_195" data-name="Trazado 195" d="M50.648,66.776H53.5v-.584H51.23V61.631h-.582Z" transform="translate(-26.264 -61.63)" fill="#a8a8a8" fill-rule="evenodd"/>
      <path id="Trazado_196" data-name="Trazado 196" d="M58.7,66.2v-2h1.36c.412,0,.734.424.734,1a.883.883,0,0,1-.894,1Zm0-2.573h0V62.295H59.9c.59,0,.886.274.886.655s-.313.681-.859.681H58.7Zm-.591,3.156h1.709c1.056,0,1.567-.336,1.567-1.5,0-.708-.161-1.264-.51-1.4v-.01a1.038,1.038,0,0,0,.51-1.052c0-.769-.4-1.114-1.449-1.114H58.106v5.076Z" transform="translate(-27.216 -61.64)" fill="#a8a8a8" fill-rule="evenodd"/>
      <path id="Trazado_197" data-name="Trazado 197" d="M63.769,65.07c0,1.176.519,1.707,1.977,1.707,1.441,0,1.969-.53,1.969-1.707V61.631h-.591v3.43c0,.725-.555,1.132-1.386,1.132s-1.378-.407-1.378-1.123V61.631h-.59V65.07Z" transform="translate(-27.94 -61.63)" fill="#a8a8a8" fill-rule="evenodd"/>
      <path id="Trazado_198" data-name="Trazado 198" d="M70.068,66.317a1.95,1.95,0,0,0,1.4.469A1.143,1.143,0,0,0,72.78,65.5c0-1.8-2.014-1.548-2.014-2.538a.688.688,0,0,1,.743-.672,1.215,1.215,0,0,1,.949.487l.259-.7a1.622,1.622,0,0,0-1.2-.372c-.877,0-1.342.434-1.342,1.264,0,1.724,2.014,1.548,2.014,2.555a.658.658,0,0,1-.716.672,1.286,1.286,0,0,1-1.047-.592Z" transform="translate(-28.744 -61.64)" fill="#a8a8a8" fill-rule="evenodd"/>
      <rect id="Rectángulo_210" data-name="Rectángulo 210" width="0.582" height="5.216" transform="translate(45.699 0.001)" fill="#a8a8a8"/>
      <path id="Trazado_199" data-name="Trazado 199" d="M77.66,66.846h.59V63.841c0-.31-.036-.8-.036-.8h.009a7.287,7.287,0,0,0,.483.8l2.309,3.006h.59V61.63h-.59v3.015c0,.31.036.8.036.8h-.009a6.48,6.48,0,0,0-.492-.8l-2.3-3.015h-.59Z" transform="translate(-29.714 -61.63)" fill="#a8a8a8" fill-rule="evenodd"/>
      <path id="Trazado_200" data-name="Trazado 200" d="M84.082,66.786h2.9V66.2H84.673V64.868h1.763v-.575H84.673v-2h2.184v-.583H84.082Z" transform="translate(-30.534 -61.64)" fill="#a8a8a8" fill-rule="evenodd"/>
      <path id="Trazado_201" data-name="Trazado 201" d="M88.852,66.317a1.913,1.913,0,0,0,1.387.469c.931,0,1.325-.46,1.325-1.282,0-1.8-2.014-1.548-2.014-2.538a.688.688,0,0,1,.743-.672,1.214,1.214,0,0,1,.949.487l.25-.7a1.594,1.594,0,0,0-1.2-.372c-.877,0-1.334.434-1.334,1.264,0,1.724,2.014,1.548,2.014,2.555a.658.658,0,0,1-.716.672,1.286,1.286,0,0,1-1.047-.592Z" transform="translate(-31.144 -61.64)" fill="#a8a8a8" fill-rule="evenodd"/>
      <path id="Trazado_202" data-name="Trazado 202" d="M93.736,66.317a1.949,1.949,0,0,0,1.4.469A1.143,1.143,0,0,0,96.447,65.5c0-1.8-2.014-1.548-2.014-2.538a.688.688,0,0,1,.743-.672,1.214,1.214,0,0,1,.949.487l.259-.7a1.621,1.621,0,0,0-1.2-.372c-.877,0-1.343.434-1.343,1.264,0,1.724,2.014,1.548,2.014,2.555a.658.658,0,0,1-.716.672,1.287,1.287,0,0,1-1.047-.592Z" transform="translate(-31.768 -61.64)" fill="#a8a8a8" fill-rule="evenodd"/>
    </g>
  </g>
  <circle id="Elipse_5" data-name="Elipse 5" cx="57.322" cy="57.322" r="57.322" fill="#393939" opacity="0.69"/>
</svg>
