<svg xmlns="http://www.w3.org/2000/svg" width="167.837" height="82.873" viewBox="0 0 167.837 82.873">
  <g id="Grupo_147" data-name="Grupo 147" transform="translate(-37)">
    <g id="Grupo_144" data-name="Grupo 144" transform="translate(37)">
      <g id="Grupo_143" data-name="Grupo 143">
        <g id="Grupo_142" data-name="Grupo 142" transform="translate(0 16.156)">
          <g id="Grupo_140" data-name="Grupo 140">
            <path id="Trazado_80" data-name="Trazado 80" d="M59.62,25.5H0L6.019,39.059H57.973a24.061,24.061,0,0,1,1.647-3.1Z" transform="translate(0 -25.5)" fill="#ffd500"/>
            <path id="Trazado_81" data-name="Trazado 81" d="M64.287,54.7H21.9l6.019,13.559H64.287a28.312,28.312,0,0,1,0-13.559Z" transform="translate(-8.024 -36.199)" fill="#ffd500"/>
            <path id="Trazado_82" data-name="Trazado 82" d="M43.8,83.9l6.019,13.559h25.85V87a29.1,29.1,0,0,1-1.647-3.1Z" transform="translate(-16.049 -46.899)" fill="#ffd500"/>
          </g>
          <g id="Grupo_141" data-name="Grupo 141" transform="translate(108.217)">
            <path id="Trazado_83" data-name="Trazado 83" d="M230.42,25.5H170.8V35.954a29.1,29.1,0,0,1,1.647,3.1H224.4Z" transform="translate(-170.8 -25.5)" fill="#ffd500"/>
            <path id="Trazado_84" data-name="Trazado 84" d="M218.487,54.7H176.1a28.312,28.312,0,0,1,0,13.559h36.368Z" transform="translate(-172.742 -36.199)" fill="#ffd500"/>
            <path id="Trazado_85" data-name="Trazado 85" d="M172.547,83.863a24.061,24.061,0,0,1-1.647,3.1V97.359h25.85L202.769,83.8H172.547Z" transform="translate(-170.837 -46.862)" fill="#ffd500"/>
          </g>
        </g>
        <path id="Trazado_86" data-name="Trazado 86" d="M108.537,0a41.437,41.437,0,1,0,41.437,41.437A41.452,41.452,0,0,0,108.537,0Zm0,69.885a28.511,28.511,0,1,1,28.511-28.511A28.514,28.514,0,0,1,108.537,69.885Z" transform="translate(-24.586)" fill="#fff"/>
      </g>
    </g>
    <g id="Grupo_146" data-name="Grupo 146" transform="translate(101.119 21.542)">
      <g id="Grupo_145" data-name="Grupo 145">
        <path id="Trazado_87" data-name="Trazado 87" d="M139.152,50.6a1.175,1.175,0,0,0-.127-.444l-4.689-11.531a2.912,2.912,0,0,0-2.6-1.774h-5.956v-1.9a.974.974,0,0,0-.95-.95h-7.54a.974.974,0,0,0-.95.95v1.9h-5.956a2.912,2.912,0,0,0-2.6,1.774l-4.815,11.531a1.174,1.174,0,0,0-.127.444,4.715,4.715,0,0,0-1.647,3.548v5.005a4.553,4.553,0,0,0,.634,2.281V67.96a2.245,2.245,0,0,0,2.218,2.218h2.534A2.245,2.245,0,0,0,108.8,67.96V63.842h24.52V67.96a2.245,2.245,0,0,0,2.218,2.218h2.534a2.245,2.245,0,0,0,2.218-2.218V61.5a4.742,4.742,0,0,0,.634-2.281V54.211a5.346,5.346,0,0,0-1.774-3.611ZM109.437,39.322a1.073,1.073,0,0,1,.887-.57h21.415a1.232,1.232,0,0,1,.887.57l4.182,10.2c-.19,0-.38-.063-.634-.063H105.952c-.19,0-.444.063-.634.063Zm4.308,18.5a.974.974,0,0,1-.95.95h-7.54a.974.974,0,0,1-.95-.95V55.542a.974.974,0,0,1,.95-.95h7.54a.974.974,0,0,1,.95.95ZM126.353,57a.974.974,0,0,1-.95.95H116.6a.974.974,0,0,1-.95-.95v-.634a.974.974,0,0,1,.95-.95H125.4a.974.974,0,0,1,.95.95Zm11.341.824a.974.974,0,0,1-.95.95H129.2a.974.974,0,0,1-.95-.95V55.542a.974.974,0,0,1,.95-.95h7.54a.974.974,0,0,1,.95.95Zm0,0" transform="translate(-101.2 -34)" fill="#fff"/>
      </g>
    </g>
  </g>
</svg>
