<svg xmlns="http://www.w3.org/2000/svg" width="108.708" height="53.677" viewBox="0 0 108.708 53.677">
  <g id="LOGO" transform="translate(-13.583)">
    <g id="Grupo_153" data-name="Grupo 153" transform="translate(13.583)">
      <g id="Grupo_152" data-name="Grupo 152">
        <g id="Grupo_151" data-name="Grupo 151" transform="translate(0 10.465)">
          <g id="Grupo_149" data-name="Grupo 149">
            <path id="Trazado_91" data-name="Trazado 91" d="M71.716,25.5H33.1L37,34.282H70.649a15.585,15.585,0,0,1,1.067-2.011Z" transform="translate(-33.1 -25.5)" fill="#ffd500"/>
            <path id="Trazado_92" data-name="Trazado 92" d="M82.454,54.7H55l3.9,8.782H82.454a19.2,19.2,0,0,1-.533-4.391A17.164,17.164,0,0,1,82.454,54.7Z" transform="translate(-46.013 -42.717)" fill="#ffd500"/>
            <path id="Trazado_93" data-name="Trazado 93" d="M76.8,83.9l3.9,8.782H97.442V85.911A18.845,18.845,0,0,1,96.375,83.9Z" transform="translate(-58.867 -59.934)" fill="#ffd500"/>
          </g>
          <g id="Grupo_150" data-name="Grupo 150" transform="translate(70.092)">
            <path id="Trazado_94" data-name="Trazado 94" d="M242.516,25.5H203.9v6.771a18.842,18.842,0,0,1,1.067,2.011h33.651Z" transform="translate(-203.9 -25.5)" fill="#ffd500"/>
            <path id="Trazado_95" data-name="Trazado 95" d="M236.654,54.7H209.2a18.338,18.338,0,0,1,0,8.782h23.555Z" transform="translate(-207.025 -42.717)" fill="#ffd500"/>
            <path id="Trazado_96" data-name="Trazado 96" d="M204.967,83.841a15.582,15.582,0,0,1-1.067,2.011v6.73h16.743l3.9-8.782H204.967Z" transform="translate(-203.9 -59.875)" fill="#ffd500"/>
          </g>
        </g>
        <path id="Trazado_97" data-name="Trazado 97" d="M126.938,0a26.838,26.838,0,1,0,26.838,26.838A26.849,26.849,0,0,0,126.938,0Zm0,45.264A18.467,18.467,0,1,1,145.405,26.8,18.468,18.468,0,0,1,126.938,45.264Z" transform="translate(-72.605)" fill="#1a1a1a"/>
      </g>
    </g>
    <g id="Grupo_155" data-name="Grupo 155" transform="translate(55.154 13.953)">
      <g id="Grupo_154" data-name="Grupo 154">
        <path id="Trazado_98" data-name="Trazado 98" d="M158.94,44.752a.761.761,0,0,0-.082-.287L155.822,37a1.886,1.886,0,0,0-1.683-1.149h-3.9V34.616a.631.631,0,0,0-.616-.616h-4.883a.631.631,0,0,0-.616.616v1.231h-3.857A1.886,1.886,0,0,0,138.586,37l-3.037,7.469a.761.761,0,0,0-.082.287,3.054,3.054,0,0,0-1.067,2.3v3.242a2.949,2.949,0,0,0,.41,1.477V56a1.454,1.454,0,0,0,1.436,1.436h1.641A1.454,1.454,0,0,0,139.325,56V53.329h15.881V56a1.454,1.454,0,0,0,1.436,1.436h1.642A1.454,1.454,0,0,0,159.72,56V51.81a3.072,3.072,0,0,0,.41-1.477V47.091a3.689,3.689,0,0,0-1.19-2.339Zm-19.247-7.3a.7.7,0,0,1,.575-.369h13.871a.8.8,0,0,1,.575.369l2.708,6.607c-.123,0-.246-.041-.41-.041H137.437c-.123,0-.287.041-.41.041Zm2.791,11.983a.631.631,0,0,1-.616.616h-4.883a.631.631,0,0,1-.616-.616V47.953a.631.631,0,0,1,.616-.616h4.883a.631.631,0,0,1,.616.616Zm8.166-.533a.631.631,0,0,1-.616.616h-5.7a.631.631,0,0,1-.616-.616v-.41a.631.631,0,0,1,.616-.616h5.7a.631.631,0,0,1,.616.616ZM158,49.43a.631.631,0,0,1-.616.616H152.5a.631.631,0,0,1-.616-.616V47.953a.631.631,0,0,1,.616-.616h4.883a.631.631,0,0,1,.616.616Zm0,0" transform="translate(-134.4 -34)" fill="#1a1a1a"/>
      </g>
    </g>
  </g>
</svg>
