<svg xmlns="http://www.w3.org/2000/svg" width="392" height="82.873" viewBox="0 0 392 82.873">
  <g id="Grupo_147" data-name="Grupo 147" transform="translate(-37)">
    <g id="Grupo_138" data-name="Grupo 138" transform="translate(222.641 41.88)">
      <path id="Trazado_52" data-name="Trazado 52" d="M293.063,66.5h10.771v3.168H300.16V88.676h-3.485V69.668H293V66.5Z" transform="translate(-293 -66.247)" fill="#fff"/>
      <path id="Trazado_53" data-name="Trazado 53" d="M324.992,88.676h-3.548l-.634-4.055H316.5l-.57,4.055H312.7L316.248,66.5h5.132Zm-7.92-7.033h3.358l-1.711-11.214Z" transform="translate(-300.218 -66.247)" fill="#fff"/>
      <path id="Trazado_54" data-name="Trazado 54" d="M349.582,66.5l-3.675,10.771,3.928,11.4H346.16l-2.851-8.807-2.914,8.807H337.1l3.928-11.4L337.353,66.5h3.611l2.6,8.173,2.724-8.173Z" transform="translate(-309.159 -66.247)" fill="#fff"/>
      <path id="Trazado_55" data-name="Trazado 55" d="M363.7,66.5h3.485V88.676H363.7Z" transform="translate(-318.905 -66.247)" fill="#fff"/>
      <path id="Trazado_56" data-name="Trazado 56" d="M381.259,66.1c3.421,0,5.132,2.027,5.132,5.576v.7H383.1v-.887c0-1.584-.634-2.218-1.774-2.218s-1.774.634-1.774,2.218c0,4.562,6.843,5.385,6.843,11.785,0,3.548-1.774,5.576-5.2,5.576S376,86.818,376,83.27V81.876h3.295V83.46c0,1.584.7,2.154,1.837,2.154s1.837-.57,1.837-2.154c0-4.562-6.843-5.385-6.843-11.785C376.127,68.127,377.9,66.1,381.259,66.1Z" transform="translate(-323.412 -66.1)" fill="#fff"/>
      <path id="Trazado_57" data-name="Trazado 57" d="M410.9,66.5h5.512c3.485,0,5.2,1.9,5.2,5.512V83.227c0,3.548-1.711,5.512-5.2,5.512H410.9Zm3.485,3.168v15.84h1.964c1.14,0,1.774-.57,1.774-2.154V71.822c0-1.584-.7-2.154-1.774-2.154Z" transform="translate(-336.2 -66.247)" fill="#fff"/>
      <path id="Trazado_58" data-name="Trazado 58" d="M438.485,75.914H443.3v3.168h-4.815v6.526H444.5v3.168H435V66.6h9.5v3.168h-6.019Z" transform="translate(-345.031 -66.283)" fill="#fff"/>
      <path id="Trazado_59" data-name="Trazado 59" d="M471.921,66.5V83.607c0,1.584.7,2.154,1.837,2.154s1.837-.57,1.837-2.154V66.5h3.295V83.417c0,3.548-1.774,5.576-5.2,5.576s-5.2-2.027-5.2-5.576V66.5Z" transform="translate(-357.306 -66.247)" fill="#fff"/>
      <path id="Trazado_60" data-name="Trazado 60" d="M496.659,66.1c3.421,0,5.132,2.027,5.132,5.576v.7H498.5v-.887c0-1.584-.634-2.218-1.774-2.218s-1.774.634-1.774,2.218c0,4.562,6.843,5.385,6.843,11.785,0,3.548-1.774,5.576-5.2,5.576s-5.2-2.027-5.2-5.576V81.876h3.295V83.46c0,1.584.7,2.154,1.774,2.154s1.837-.57,1.837-2.154c0-4.562-6.843-5.385-6.843-11.785C491.527,68.127,493.3,66.1,496.659,66.1Z" transform="translate(-365.696 -66.1)" fill="#fff"/>
      <path id="Trazado_61" data-name="Trazado 61" d="M518.285,88.676H514.8V66.5h3.485V76h3.992V66.5h3.548V88.676h-3.548v-9.5h-3.992Z" transform="translate(-374.271 -66.247)" fill="#fff"/>
      <path id="Trazado_62" data-name="Trazado 62" d="M543.121,66.5V83.607c0,1.584.7,2.154,1.837,2.154s1.837-.57,1.837-2.154V66.5h3.295V83.417c0,3.548-1.774,5.576-5.2,5.576s-5.2-2.027-5.2-5.576V66.5Z" transform="translate(-383.394 -66.247)" fill="#fff"/>
      <path id="Trazado_63" data-name="Trazado 63" d="M574.192,88.676h-3.485l-.634-4.055h-4.308l-.634,4.055H561.9L565.448,66.5h5.132Zm-7.92-7.033h3.358l-1.711-11.214Z" transform="translate(-391.529 -66.247)" fill="#fff"/>
      <path id="Trazado_64" data-name="Trazado 64" d="M587.6,66.5h3.485V88.676H587.6Z" transform="translate(-400.945 -66.247)" fill="#fff"/>
      <path id="Trazado_65" data-name="Trazado 65" d="M611.592,88.676h-3.485l-.634-4.055h-4.308l-.634,4.055H599.3L602.848,66.5h5.132Zm-7.983-7.033h3.358l-1.711-11.214Z" transform="translate(-405.233 -66.247)" fill="#fff"/>
    </g>
    <g id="Grupo_144" data-name="Grupo 144" transform="translate(37)">
      <g id="Grupo_143" data-name="Grupo 143">
        <g id="Grupo_142" data-name="Grupo 142" transform="translate(0 16.156)">
          <g id="Grupo_140" data-name="Grupo 140">
            <path id="Trazado_80" data-name="Trazado 80" d="M59.62,25.5H0L6.019,39.059H57.973a24.061,24.061,0,0,1,1.647-3.1Z" transform="translate(0 -25.5)" fill="#ffd500"/>
            <path id="Trazado_81" data-name="Trazado 81" d="M64.287,54.7H21.9l6.019,13.559H64.287a28.312,28.312,0,0,1,0-13.559Z" transform="translate(-8.024 -36.199)" fill="#ffd500"/>
            <path id="Trazado_82" data-name="Trazado 82" d="M43.8,83.9l6.019,13.559h25.85V87a29.1,29.1,0,0,1-1.647-3.1Z" transform="translate(-16.049 -46.899)" fill="#ffd500"/>
          </g>
          <g id="Grupo_141" data-name="Grupo 141" transform="translate(108.217)">
            <path id="Trazado_83" data-name="Trazado 83" d="M230.42,25.5H170.8V35.954a29.1,29.1,0,0,1,1.647,3.1H224.4Z" transform="translate(-170.8 -25.5)" fill="#ffd500"/>
            <path id="Trazado_84" data-name="Trazado 84" d="M218.487,54.7H176.1a28.312,28.312,0,0,1,0,13.559h36.368Z" transform="translate(-172.742 -36.199)" fill="#ffd500"/>
            <path id="Trazado_85" data-name="Trazado 85" d="M172.547,83.863a24.061,24.061,0,0,1-1.647,3.1V97.359h25.85L202.769,83.8H172.547Z" transform="translate(-170.837 -46.862)" fill="#ffd500"/>
          </g>
        </g>
        <path id="Trazado_86" data-name="Trazado 86" d="M108.537,0a41.437,41.437,0,1,0,41.437,41.437A41.452,41.452,0,0,0,108.537,0Zm0,69.885a28.511,28.511,0,1,1,28.511-28.511A28.514,28.514,0,0,1,108.537,69.885Z" transform="translate(-24.586)" fill="#fff"/>
      </g>
    </g>
    <g id="Grupo_146" data-name="Grupo 146" transform="translate(101.119 21.542)">
      <g id="Grupo_145" data-name="Grupo 145">
        <path id="Trazado_87" data-name="Trazado 87" d="M139.152,50.6a1.175,1.175,0,0,0-.127-.444l-4.689-11.531a2.912,2.912,0,0,0-2.6-1.774h-5.956v-1.9a.974.974,0,0,0-.95-.95h-7.54a.974.974,0,0,0-.95.95v1.9h-5.956a2.912,2.912,0,0,0-2.6,1.774l-4.815,11.531a1.174,1.174,0,0,0-.127.444,4.715,4.715,0,0,0-1.647,3.548v5.005a4.553,4.553,0,0,0,.634,2.281V67.96a2.245,2.245,0,0,0,2.218,2.218h2.534A2.245,2.245,0,0,0,108.8,67.96V63.842h24.52V67.96a2.245,2.245,0,0,0,2.218,2.218h2.534a2.245,2.245,0,0,0,2.218-2.218V61.5a4.742,4.742,0,0,0,.634-2.281V54.211a5.346,5.346,0,0,0-1.774-3.611ZM109.437,39.322a1.073,1.073,0,0,1,.887-.57h21.415a1.232,1.232,0,0,1,.887.57l4.182,10.2c-.19,0-.38-.063-.634-.063H105.952c-.19,0-.444.063-.634.063Zm4.308,18.5a.974.974,0,0,1-.95.95h-7.54a.974.974,0,0,1-.95-.95V55.542a.974.974,0,0,1,.95-.95h7.54a.974.974,0,0,1,.95.95ZM126.353,57a.974.974,0,0,1-.95.95H116.6a.974.974,0,0,1-.95-.95v-.634a.974.974,0,0,1,.95-.95H125.4a.974.974,0,0,1,.95.95Zm11.341.824a.974.974,0,0,1-.95.95H129.2a.974.974,0,0,1-.95-.95V55.542a.974.974,0,0,1,.95-.95h7.54a.974.974,0,0,1,.95.95Zm0,0" transform="translate(-101.2 -34)" fill="#fff"/>
      </g>
    </g>
    <g id="Grupo_159" data-name="Grupo 159" transform="translate(223 16.062)">
      <path id="Trazado_125" data-name="Trazado 125" d="M1.8,12.8.964,16.4H0L3.536.2H5.079l3.6,16.2H7.587l-.836-3.6H1.8Zm.129-.9H6.622L4.308,1.422Z" transform="translate(0 -0.071)" fill="#fff"/>
      <path id="Trazado_126" data-name="Trazado 126" d="M36.88,4.051v.321H35.851V3.986c0-1.736-.643-3.022-2.379-3.022S31.093,2.25,31.093,3.922c0,3.922,5.851,3.986,5.851,8.487,0,2.315-1.029,4.051-3.472,4.051S30,14.723,30,12.409v-.836h1.029v.9c0,1.736.643,2.958,2.443,2.958s2.443-1.222,2.443-2.958c0-3.858-5.851-3.986-5.851-8.487C30,1.607,31.029,0,33.472,0S36.88,1.736,36.88,4.051Z" transform="translate(-10.712)" fill="#fff"/>
      <path id="Trazado_127" data-name="Trazado 127" d="M57.3,4.115C57.3,1.736,58.393,0,60.9,0s3.6,1.736,3.6,4.115v8.294c0,2.379-1.093,4.115-3.6,4.115-2.443,0-3.536-1.736-3.536-4.115V4.115Zm1.093,8.358c0,1.736.707,3.086,2.507,3.086s2.507-1.286,2.507-3.086V4.051C63.408,2.315,62.7.964,60.9.964S58.393,2.25,58.393,4.051Z" transform="translate(-20.459)" fill="#fff"/>
      <path id="Trazado_128" data-name="Trazado 128" d="M92.144,4.115v1.35H91.115V4.051c0-1.736-.643-3.086-2.443-3.086s-2.443,1.35-2.443,3.086v8.423c0,1.736.643,3.022,2.443,3.022s2.443-1.286,2.443-3.022V10.544h1.029v1.865c0,2.315-1.029,4.115-3.472,4.115S85.2,14.788,85.2,12.409V4.115C85.2,1.8,86.229,0,88.672,0S92.144,1.736,92.144,4.115Z" transform="translate(-30.421)" fill="#fff"/>
      <path id="Trazado_129" data-name="Trazado 129" d="M113.793.2V16.4H112.7V.2Z" transform="translate(-40.24 -0.071)" fill="#fff"/>
      <path id="Trazado_130" data-name="Trazado 130" d="M132.7,12.8l-.836,3.6H130.9L134.436.2h1.543l3.6,16.2h-1.093l-.836-3.6Zm.193-.9h4.694l-2.379-10.48Z" transform="translate(-46.738 -0.071)" fill="#fff"/>
      <path id="Trazado_131" data-name="Trazado 131" d="M167.944,4.115v1.35h-1.029V4.051c0-1.736-.643-3.086-2.443-3.086s-2.443,1.35-2.443,3.086v8.423c0,1.736.643,3.022,2.443,3.022s2.443-1.286,2.443-3.022V10.544h1.029v1.865c0,2.315-1.029,4.115-3.472,4.115S161,14.788,161,12.409V4.115C161,1.8,162.029,0,164.472,0S167.944,1.736,167.944,4.115Z" transform="translate(-57.486)" fill="#fff"/>
      <path id="Trazado_132" data-name="Trazado 132" d="M189.593.2V16.4H188.5V.2Z" transform="translate(-67.305 -0.071)" fill="#fff"/>
      <path id="Trazado_133" data-name="Trazado 133" d="M207,4.115C207,1.736,208.093,0,210.536,0c2.507,0,3.6,1.736,3.6,4.115v8.294c0,2.379-1.093,4.115-3.6,4.115-2.443,0-3.536-1.736-3.536-4.115Zm1.093,8.358c0,1.736.707,3.086,2.507,3.086s2.507-1.286,2.507-3.086V4.051c0-1.736-.707-3.086-2.507-3.086s-2.507,1.286-2.507,3.086Z" transform="translate(-73.91)" fill="#fff"/>
      <path id="Trazado_134" data-name="Trazado 134" d="M235.864,16.4H234.9V.2h1.414L241.2,13.895V.2h.964V16.4h-1.157L235.864,2Z" transform="translate(-83.872 -0.071)" fill="#fff"/>
      <path id="Trazado_135" data-name="Trazado 135" d="M286.136.2c2.508,0,3.6,1.672,3.6,4.051v8.165c0,2.379-1.093,4.051-3.6,4.051H282.6V.2Zm0,15.238c1.8,0,2.572-1.222,2.572-3.022V4.186c0-1.8-.772-3.022-2.572-3.022h-2.508V15.438h2.508Z" transform="translate(-100.903 -0.071)" fill="#fff"/>
      <path id="Trazado_136" data-name="Trazado 136" d="M315.965,7.722v.964h-4.436v6.751h5.336V16.4H310.5V.2h6.365v.964h-5.336V7.722Z" transform="translate(-110.865 -0.071)" fill="#fff"/>
    </g>
  </g>
</svg>
