<svg xmlns="http://www.w3.org/2000/svg" width="170" height="170" viewBox="0 0 170 170">
  <g id="traslado" transform="translate(-1006.565 -2091.194)">
    <g id="Elipse_6" data-name="Elipse 6" transform="translate(1006.565 2091.194)" fill="#fff" stroke="#ffd500" stroke-width="3">
      <circle cx="85" cy="85" r="85" stroke="none"/>
      <circle cx="85" cy="85" r="83.5" fill="none"/>
    </g>
    <g id="TRASLADOS" transform="translate(1057 2129.284)">
      <path id="Trazado_165" data-name="Trazado 165" d="M403.756,486.4h-1.328a1.328,1.328,0,0,0,0,2.656h1.328a1.327,1.327,0,0,0,1.328-1.328,1.308,1.308,0,0,0-1.328-1.328" transform="translate(-338.428 -410.4)" fill="#ffd500"/>
      <path id="Trazado_166" data-name="Trazado 166" d="M307.075,486.4h-2.547a1.328,1.328,0,1,0,0,2.656h2.547a1.328,1.328,0,0,0,0-2.656" transform="translate(-255.825 -410.4)" fill="#ffd500"/>
      <path id="Trazado_167" data-name="Trazado 167" d="M356.075,486.4h-2.547a1.328,1.328,0,1,0,0,2.656h2.547a1.328,1.328,0,0,0,0-2.656" transform="translate(-297.169 -410.4)" fill="#ffd500"/>
      <path id="Trazado_168" data-name="Trazado 168" d="M224.686,328.98a1.33,1.33,0,0,0,1.156.672,1.418,1.418,0,0,0,.656-.172,1.333,1.333,0,0,0,.5-1.812,8.243,8.243,0,0,0-1.969-2.312,1.335,1.335,0,1,0-1.656,2.094,5.177,5.177,0,0,1,1.313,1.531" transform="translate(-188.045 -274.276)" fill="#ffd500"/>
      <path id="Trazado_169" data-name="Trazado 169" d="M18.285,468.1a1.316,1.316,0,0,0-1.844-.359,1.33,1.33,0,0,0-.359,1.844,8.031,8.031,0,0,0,2.141,2.156,1.333,1.333,0,0,0,1.5-2.2,5.245,5.245,0,0,1-1.437-1.437" transform="translate(-13.379 -394.464)" fill="#ffd500"/>
      <path id="Trazado_170" data-name="Trazado 170" d="M62.191,486.4H59.628a1.328,1.328,0,0,0,0,2.656h2.547a1.327,1.327,0,0,0,1.328-1.328,1.3,1.3,0,0,0-1.312-1.328" transform="translate(-49.191 -410.4)" fill="#ffd500"/>
      <path id="Trazado_171" data-name="Trazado 171" d="M10.422,426.144a1.324,1.324,0,0,0,1.313-1.109,5.45,5.45,0,0,1,.719-1.891,1.337,1.337,0,0,0-2.266-1.422,8.091,8.091,0,0,0-1.094,2.844,1.342,1.342,0,0,0,1.078,1.547.731.731,0,0,0,.25.031" transform="translate(-7.656 -355.3)" fill="#ffd500"/>
      <path id="Trazado_172" data-name="Trazado 172" d="M176,317.126a1.327,1.327,0,0,0,1.328,1.328h2.547a1.328,1.328,0,0,0,0-2.656h-2.547A1.308,1.308,0,0,0,176,317.126" transform="translate(-148.5 -266.455)" fill="#ffd500"/>
      <path id="Trazado_173" data-name="Trazado 173" d="M94.8,402.428a1.327,1.327,0,0,0-1.328-1.328H90.928a1.328,1.328,0,0,0,0,2.656h2.547a1.327,1.327,0,0,0,1.328-1.328" transform="translate(-75.6 -338.428)" fill="#ffd500"/>
      <path id="Trazado_174" data-name="Trazado 174" d="M128.328,315.7a1.328,1.328,0,0,0,0,2.656h2.547a1.328,1.328,0,0,0,0-2.656Z" transform="translate(-107.156 -266.372)" fill="#ffd500"/>
      <path id="Trazado_175" data-name="Trazado 175" d="M44.521,403.756a1.328,1.328,0,0,0,0-2.656h-.891a7.558,7.558,0,0,0-1.969.25,1.345,1.345,0,0,0-.969,1.625,1.32,1.32,0,0,0,1.3,1,1.189,1.189,0,0,0,.328-.047,5.293,5.293,0,0,1,1.313-.156h.891Z" transform="translate(-34.303 -338.428)" fill="#ffd500"/>
      <path id="Trazado_176" data-name="Trazado 176" d="M209.175,486.4h-2.547a1.328,1.328,0,0,0,0,2.656h2.547a1.328,1.328,0,0,0,0-2.656" transform="translate(-173.222 -410.4)" fill="#ffd500"/>
      <path id="Trazado_177" data-name="Trazado 177" d="M233.48,368.866a1.333,1.333,0,0,0-1.625.969,5.308,5.308,0,0,1-.859,1.828,1.327,1.327,0,0,0,1.078,2.109,1.34,1.34,0,0,0,1.078-.547,7.81,7.81,0,0,0,1.3-2.75,1.349,1.349,0,0,0-.969-1.609" transform="translate(-194.684 -311.194)" fill="#ffd500"/>
      <path id="Trazado_178" data-name="Trazado 178" d="M258.075,486.4h-2.547a1.328,1.328,0,1,0,0,2.656h2.547a1.328,1.328,0,0,0,0-2.656" transform="translate(-214.481 -410.4)" fill="#ffd500"/>
      <path id="Trazado_179" data-name="Trazado 179" d="M143.719,402.428a1.327,1.327,0,0,0-1.328-1.328h-2.562a1.328,1.328,0,0,0,0,2.656h2.547a1.33,1.33,0,0,0,1.344-1.328" transform="translate(-116.859 -338.428)" fill="#ffd500"/>
      <path id="Trazado_180" data-name="Trazado 180" d="M111.175,486.4h-2.547a1.328,1.328,0,0,0,0,2.656h2.547a1.328,1.328,0,1,0,0-2.656" transform="translate(-90.534 -410.4)" fill="#ffd500"/>
      <path id="Trazado_181" data-name="Trazado 181" d="M160.175,486.4h-2.547a1.328,1.328,0,0,0,0,2.656h2.547a1.328,1.328,0,0,0,0-2.656" transform="translate(-131.878 -410.4)" fill="#ffd500"/>
      <path id="Trazado_182" data-name="Trazado 182" d="M192.688,401.572a1.334,1.334,0,0,0-1.547-1.078,6.324,6.324,0,0,1-.937.078h-1.375a1.328,1.328,0,0,0,0,2.656H190.2a8.218,8.218,0,0,0,1.391-.125,1.326,1.326,0,0,0,1.094-1.531" transform="translate(-158.203 -337.9)" fill="#ffd500"/>
      <path id="Trazado_183" data-name="Trazado 183" d="M86.728,315.7a1.328,1.328,0,0,0,0,2.656h1.328a1.328,1.328,0,0,0,0-2.656Z" transform="translate(-72.056 -266.372)" fill="#ffd500"/>
      <path id="Trazado_184" data-name="Trazado 184" d="M14.672,6.672a8,8,0,1,1-8,8,8.015,8.015,0,0,1,8-8M13.547,46.141a1.343,1.343,0,0,0,2.25,0,176.281,176.281,0,0,0,10.25-18.359c2.047-4.422,3.3-7.094,3.3-11.937C29.328,8.047,23.844,0,14.672,0S0,8.047,0,15.828c0,4.844,1.234,7.516,3.3,11.938a175.486,175.486,0,0,0,10.25,18.375" fill="#ffd500"/>
      <path id="Trazado_185" data-name="Trazado 185" d="M338.872,193.356a8,8,0,1,1,8-8,8.015,8.015,0,0,1-8,8m0-22.656c-9.187,0-14.672,8.047-14.672,15.828,0,4.844,1.234,7.516,3.3,11.938a182.934,182.934,0,0,0,10.25,18.359,1.343,1.343,0,0,0,2.25,0,176.281,176.281,0,0,0,10.25-18.359c2.063-4.422,3.3-7.094,3.3-11.937,0-7.781-5.484-15.828-14.672-15.828" transform="translate(-273.544 -144.028)" fill="#ffd500"/>
    </g>
  </g>
</svg>
